<?xml version="1.0" encoding="utf-8"?>
<!-- Generator: Adobe Illustrator 19.0.1, SVG Export Plug-In . SVG Version: 6.00 Build 0)  -->
<svg version="1.1" id="Слой_1" xmlns="http://www.w3.org/2000/svg" xmlns:xlink="http://www.w3.org/1999/xlink" x="0px" y="0px"
	 viewBox="-289.8 404.6 337.8 42.8" style="enable-background:new -289.8 404.6 337.8 42.8;" xml:space="preserve">
<style type="text/css">
	.st0{fill:#E2C9C3;}
	.st1{fill:#503842;}
	.st2{opacity:0.2;fill:#E2C9C3;}
	.st3{fill:none;stroke:#E2C9C3;stroke-miterlimit:10;}
	.st4{opacity:0.2;fill:#E2C9C3;enable-background:new    ;}
</style>
<path id="annonce_копия" class="st0" d="M-157.2,435.4h6.9l-12.6-28.3h-6.5l-12.6,28.3h6.7l9.1-21.9L-157.2,435.4z
	 M-125.9,407.2v17.2l-14-17.2h-5.4v28.3h6.5v-17.2l14.1,17.2h5.4v-28.3H-125.9z M-105.4,407.2h-5.4v28.3h6.5v-17.2l14.1,17.2
	l7.8-0.1L-105.4,407.2z M-20.6,407.2v17.2l-14-17.2l-8.1,0l23.2,28.3h5.4v-28.3H-20.6z M8,435.9c4.9,0,9-1.8,11.7-5l-4.2-3.9
	c-1.7,2.1-4.3,3.4-7.1,3.4c-4.8,0.2-8.8-3.5-9-8.3c0-0.3,0-0.5,0-0.8c-0.2-4.8,3.5-8.8,8.3-9c0.3,0,0.5,0,0.8,0
	c2.7,0,5.4,1.2,7.1,3.3l4.2-3.9c-2.7-3.2-6.7-5-11.6-5c-8.8,0-15.3,6.1-15.3,14.6S-0.7,435.9,8,435.9L8,435.9z M32.6,430.2v-17.8
	h14.8v-5.3H26.1v28.3H48v-5.2L32.6,430.2L32.6,430.2z M-89.1,407.1h6.4v6.4h-6.4V407.1z M-42.8,429.2h6.4v6.4h-6.4V429.2
	L-42.8,429.2z M38,418.6h5v5h-5V418.6z"/>
<path id="worldwide_escort_service" class="st1" d="M-172.5,440.5l-1.6,4.9l-1.6-4.9h-1.5l-1.6,4.9l-1.6-4.9h-1.7l2.3,6.9h1.7
	l1.6-4.7l1.5,4.7h1.7l2.3-6.9H-172.5L-172.5,440.5z M-163.7,447.6c2-0.1,3.5-1.8,3.4-3.8s-1.8-3.5-3.8-3.4c-1.9,0.1-3.4,1.7-3.4,3.6
	c0,2,1.6,3.6,3.6,3.6C-163.8,447.6-163.7,447.6-163.7,447.6z M-163.8,446.2c-1.2,0-2.2-0.9-2.3-2.2c0-1.2,0.9-2.2,2.2-2.3
	c1.2,0,2.2,0.9,2.3,2.2c0,0,0,0,0,0c0.1,1.2-0.8,2.2-2,2.2C-163.7,446.2-163.8,446.2-163.8,446.2z M-149.4,447.4l-1.6-2.2
	c0.9-0.4,1.5-1.2,1.4-2.2c0-1.6-1.2-2.5-3-2.5h-3v6.9h1.6v-1.9h1.5l1.3,1.9H-149.4L-149.4,447.4z M-151.2,443c0,0.7-0.5,1.2-1.2,1.2
	c-0.1,0-0.2,0-0.3,0h-1.3v-2.4h1.3c0.7-0.1,1.3,0.3,1.4,0.9C-151.2,442.8-151.2,442.9-151.2,443L-151.2,443z M-145.2,447.4h5.1v-1.3
	h-3.5v-5.6h-1.6L-145.2,447.4L-145.2,447.4z M-136.1,447.4h3.1c2.3,0,3.8-1.4,3.8-3.5c0-2.1-1.6-3.5-3.8-3.5h-3.1
	C-136.1,440.5-136.1,447.4-136.1,447.4z M-134.5,446.1v-4.3h1.5c1.2-0.1,2.2,0.8,2.3,2c0.1,1.2-0.8,2.2-2,2.3c-0.1,0-0.2,0-0.2,0
	H-134.5z M-116.1,440.5l-1.6,4.9l-1.6-4.9h-1.5l-1.6,4.9l-1.6-4.9h-1.7l2.3,6.9h1.7l1.6-4.7l1.5,4.7h1.7l2.3-6.9L-116.1,440.5
	L-116.1,440.5z M-110.5,447.4h1.6v-6.9h-1.6L-110.5,447.4L-110.5,447.4z M-104.2,447.4h3.2c2.3,0,3.8-1.4,3.8-3.5
	c0-2.1-1.6-3.5-3.8-3.5h-3.1L-104.2,447.4L-104.2,447.4z M-102.6,446.1v-4.3h1.5c1.2-0.1,2.2,0.8,2.3,2c0.1,1.2-0.8,2.2-2,2.3
	c-0.1,0-0.2,0-0.2,0L-102.6,446.1L-102.6,446.1z M-91.3,446.1v-1.6h3.2v-1.2h-3.2v-1.5h3.6v-1.3h-5.2v6.9h5.4v-1.3L-91.3,446.1
	L-91.3,446.1z M-76.2,446.8v-2.6h3.6v-0.6h-3.6v-2.5h4v-0.6h-4.7v6.9h4.9v-0.6L-76.2,446.8L-76.2,446.8z M-65.3,447.5
	c1.8,0,2.6-0.9,2.6-1.9c0-2.5-4.3-1.4-4.3-3.3c0-0.7,0.6-1.3,1.8-1.3c0.7,0,1.3,0.2,1.9,0.6l0.2-0.6c-0.6-0.4-1.4-0.6-2.1-0.6
	c-1.8,0-2.6,0.9-2.6,1.9c0,2.6,4.3,1.4,4.3,3.3c0,0.7-0.6,1.2-1.9,1.2c-0.8,0-1.7-0.3-2.3-0.8l-0.3,0.6
	C-67.1,447.2-66.2,447.5-65.3,447.5L-65.3,447.5z M-55,447.5c1,0,1.9-0.3,2.5-1l-0.5-0.5c-0.5,0.6-1.3,0.9-2,0.8
	c-1.6,0-2.9-1.2-2.9-2.8s1.2-2.9,2.8-2.9c0,0,0.1,0,0.1,0c0.8,0,1.5,0.3,2,0.8l0.5-0.5c-0.7-0.7-1.6-1-2.5-1c-1.9,0-3.5,1.5-3.6,3.5
	s1.5,3.5,3.5,3.6C-55.1,447.5-55,447.5-55,447.5L-55,447.5z M-44.9,447.5c1.9-0.1,3.5-1.7,3.4-3.6s-1.7-3.5-3.6-3.4
	c-1.9,0.1-3.4,1.6-3.4,3.5c0,1.9,1.5,3.5,3.4,3.5C-45,447.5-45,447.5-44.9,447.5L-44.9,447.5z M-45,446.8c-1.6,0-2.9-1.3-2.8-2.9
	c0-1.6,1.3-2.9,2.9-2.8c1.6,0,2.8,1.3,2.8,2.9c0,1.6-1.2,2.8-2.8,2.9c0,0,0,0,0,0L-45,446.8z M-31,447.4l-1.7-2.4
	c1-0.3,1.6-1.2,1.6-2.2c0-1.5-1.1-2.4-2.8-2.4h-2.6v6.9h0.7v-2.2h1.9c0.2,0,0.4,0,0.6,0l1.6,2.2L-31,447.4L-31,447.4z M-33.9,444.6
	h-1.8v-3.5h1.8c1.4,0,2.1,0.6,2.1,1.7C-31.8,444-32.5,444.6-33.9,444.6L-33.9,444.6z M-25,447.4h0.7v-6.3h2.4v-0.6h-5.6v0.6h2.4
	L-25,447.4L-25,447.4z M-9.9,447.5c1.8,0,2.6-0.9,2.6-1.9c0-2.5-4.3-1.4-4.3-3.3c0-0.7,0.6-1.3,1.8-1.3c0.7,0,1.3,0.2,1.9,0.6
	l0.2-0.6c-0.6-0.4-1.4-0.6-2.1-0.6c-1.8,0-2.6,0.9-2.6,1.9c0,2.6,4.3,1.4,4.3,3.3c0,0.7-0.6,1.2-1.9,1.2c-0.8,0-1.7-0.3-2.3-0.8
	l-0.3,0.6C-11.8,447.2-10.9,447.5-9.9,447.5L-9.9,447.5z M-1.9,446.8v-2.6h3.6v-0.6h-3.6v-2.5h4v-0.6h-4.7v6.9h4.9v-0.6L-1.9,446.8
	L-1.9,446.8z M12.6,447.4l-1.7-2.4c1-0.3,1.6-1.2,1.6-2.2c0-1.5-1.1-2.4-2.8-2.4H7.1v6.9h0.7v-2.2h1.9c0.2,0,0.4,0,0.6,0l1.6,2.2
	L12.6,447.4L12.6,447.4z M9.7,444.6H7.8v-3.5h1.8c1.4,0,2.1,0.6,2.1,1.7C11.8,444,11.1,444.6,9.7,444.6L9.7,444.6z M22.4,440.5
	l-2.7,6l-2.6-6h-0.8l3.1,6.9h0.7l3.1-6.9L22.4,440.5L22.4,440.5z M27.2,447.4H28v-6.9h-0.7L27.2,447.4L27.2,447.4z M36.3,447.5
	c1,0,1.9-0.3,2.5-1l-0.5-0.5c-0.5,0.6-1.3,0.9-2,0.8c-1.6,0-2.9-1.2-2.9-2.8s1.2-2.9,2.8-2.9c0,0,0.1,0,0.1,0c0.8,0,1.5,0.3,2,0.8
	l0.5-0.5c-0.7-0.7-1.6-1-2.5-1c-1.9,0-3.6,1.5-3.6,3.5s1.5,3.6,3.5,3.6C36.3,447.5,36.3,447.5,36.3,447.5L36.3,447.5z M44.3,446.8
	v-2.6h3.6v-0.6h-3.6v-2.5h4v-0.6h-4.7v6.9h4.9v-0.6L44.3,446.8L44.3,446.8z"/>
<path id="Фигура_10_1_" class="st2" d="M-62.6,437.4l-16.2-16.2l16.2-16.5l15.9,16.5L-62.6,437.4z"/>
<path id="Прямоугольник_4_копия_12" class="st0" d="M-73.6,421.1l10.9-11.1l10.9,11.1l-10.9,11.1L-73.6,421.1z"/>
<path id="Фигура_10" class="st3" d="M-62.6,437.4l-16.2-16.2l16.2-16.5l15.9,16.5L-62.6,437.4z"/>
<path id="ann_nce" class="st4" d="M-154.9,435.4h6.9l-12.6-28.3h-6.5l-12.6,28.3h6.7l2.5-6.1h13.1L-154.9,435.4z M-168.4,424.4
	l4.5-10.8l4.5,10.8L-168.4,424.4L-168.4,424.4z M-123.7,407.1v17.2l-14-17.2h-5.4v28.3h6.5v-17.2l14.1,17.2h5.4v-28.3H-123.7
	L-123.7,407.1z M-89.1,407.1v17.2l-14-17.2h-5.4v28.3h6.5v-17.2l14.1,17.2h5.4v-28.3H-89.1L-89.1,407.1z M-23.3,407.1v17.2l-14-17.2
	h-5.4v28.3h6.5v-17.2l14.1,17.2h5.4v-28.3H-23.3L-23.3,407.1z M5.4,435.9c4.9,0,9-1.8,11.7-5l-4.2-3.9c-1.7,2.1-4.3,3.4-7.1,3.4
	c-4.8,0.2-8.8-3.5-9-8.3c0-0.3,0-0.5,0-0.8c-0.2-4.8,3.5-8.8,8.3-9c0.3,0,0.5,0,0.8,0c2.7,0,5.4,1.2,7.1,3.3l4.2-3.9
	c-2.7-3.2-6.7-5-11.6-5c-8.8,0-15.3,6.1-15.3,14.6S-3.4,435.9,5.4,435.9L5.4,435.9z M30,430.1v-6.5h13.1v-5.1H30v-6.1h14.8v-5.3
	H23.5v28.3h21.9v-5.2L30,430.1L30,430.1z"/>
<path id="reAl_копия" class="st1" d="M-279.1,408.4c1.4,0,2.7,0.7,3.6,1.8c0.9,1.3,1.4,2.8,1.4,4.4v0.9c0,0.5-0.1,1-0.2,1.5
	c-0.9,2.7-3,4.1-6.3,4.2c-0.5,0-0.9,0-1.3,0c-0.3,0-0.6,0-0.8,0v0.4c1,0.1,2,0.6,2.6,1.4c0.3,0.3,0.6,0.7,0.8,1
	c0.3,0.3,1.2,1.7,2.9,4.1c1.6,2.4,2.6,3.8,3,4.2c0.4,0.5,0.8,0.9,1.3,1.3c0.7,0.5,1.4,1,2.2,1.3c1,0.4,2.1,0.6,3.2,0.6h2.2v-0.4
	c-0.9,0-1.7-0.2-2.5-0.6c-0.4-0.2-0.7-0.4-1-0.6c-0.3-0.3-0.7-0.5-1-0.8c-0.3-0.3-0.8-0.8-1.5-1.6s-2.2-2.8-4.5-6.1
	c-0.4-0.6-0.9-1.2-1.5-1.7c-0.4-0.4-0.9-0.8-1.4-1.1c1.9,0,3.7-0.9,4.9-2.4c1.3-1.6,2-3.6,2-5.6c0.1-2-0.7-3.9-2.1-5.3
	c-1.6-1.4-3.7-2.2-5.8-2h-10.9v0.4h0.5c0.7,0,1.3,0.3,1.8,0.7c0.5,0.5,0.8,1.1,0.8,1.8v22.4c0,0.7-0.3,1.3-0.8,1.8
	c-0.5,0.5-1.1,0.7-1.8,0.7h-0.5v0.4h8.8l0-0.4h-0.5c-0.7,0-1.4-0.3-1.8-0.7c-0.5-0.5-0.8-1.1-0.7-1.8v-24.1h2.6
	C-280.5,408.3-279.7,408.3-279.1,408.4C-279.1,408.4-279.1,408.4-279.1,408.4z M-261.7,434.9v0.4h16.7l2.3-6.5h-0.4
	c-0.5,1.5-1.4,2.9-2.6,4c-1.3,1-2.9,1.4-4.6,1.3h-5.8V422h6.9c0.5,0,1,0.2,1.4,0.6c0.4,0.4,0.6,0.9,0.5,1.4v0.6h0.4v-6.4h-0.4v0.6
	c0,0.5-0.2,1-0.6,1.4c-0.4,0.4-0.9,0.6-1.4,0.6h-6.8v-12.5h8.2c1.3,0.1,2.3,1.1,2.3,2.4v0.7h0.4v-5.1c-0.7,0.2-1.4,0.4-2.1,0.5
	c-0.9,0.2-1.8,0.2-2.7,0.2h-11.8l0,0.4h0.5c0.7,0,1.3,0.2,1.8,0.7c0.5,0.4,0.8,1,0.8,1.6v22.6c0,0.7-0.3,1.3-0.8,1.8
	c-0.5,0.5-1.1,0.8-1.8,0.7L-261.7,434.9L-261.7,434.9z M-233.9,406.1c1-0.4,2-0.6,3.1-0.6c6.4,0.1,4.2,5.9,3.7,7.1l-8.3,19.9
	c-0.3,0.7-0.9,1.3-1.5,1.8c-0.6,0.4-1.2,0.6-1.9,0.6h-0.4v0.4h8.1v-0.4h-0.3c-0.5,0-1-0.2-1.3-0.5c-0.3-0.3-0.4-0.6-0.4-1
	c0-0.3,0.1-0.7,0.2-1l2.8-7.2c0,0,6.1-0.1,9.6,1.7c1.6,0.9,2.9,2.4,3.6,4.2c1.6,4.8,3,7.1,5.3,9.4c1,1.1,2.2,2,3.5,2.6
	c1.1,0.6,2.4,0.9,3.7,0.9c1.3,0,2.6-0.2,3.8-0.6l0-0.4c-0.6,0.1-1.2,0.2-1.8,0.2c-0.9,0-1.8-0.2-2.6-0.6c-1.1-0.4-2.2-1.1-3-2
	c-1.2-1.3-2.3-2.7-3.2-4.2c-1.4-2.4-2.6-4.9-3.4-7.5l-4.9-14c-0.6-2-1.5-4-2.5-5.9c-0.7-1.2-1.6-2.3-2.6-3.1
	c-1.2-0.9-2.6-1.4-4.2-1.5c-1.7,0-3.5,0.4-5,1.1L-233.9,406.1z M-224.4,410.3c0.7,1.4,1.2,2.8,1.7,4.2l3.8,11.2
	c-0.5-0.3-1.1-0.5-1.7-0.6c-2.8-0.5-9.2-0.8-9.2-0.8L-224.4,410.3z M-205.6,434.9v0.4h16.7l2.3-6.5h-0.4c-0.5,1.5-1.4,2.9-2.6,4
	c-1.3,1-2.9,1.4-4.6,1.3h-5.8V410c0-1.4,1.2-2.6,2.6-2.5h0.5v-0.4h-8.8v0.4h0.5c0.7,0,1.3,0.3,1.8,0.7c0.5,0.5,0.8,1.1,0.8,1.8v22.4
	c0,0.7-0.3,1.3-0.8,1.8c-0.5,0.5-1.1,0.8-1.8,0.7L-205.6,434.9L-205.6,434.9z"/>
</svg>
